<svg xmlns="http://www.w3.org/2000/svg" viewBox="0 0 512 512" role="img" aria-label="Prisma Embedded Codes">
  <rect width="512" height="512" fill="#000"/>
  <g transform="translate(148 98)">
    <path fill="#a63cf1" d="M64 0 29 89 64 69z"/>
    <path fill="#6c23d9" d="M64 0 64 69 102 87z"/>
    <path fill="#00d1ca" d="M64 69 102 87 66 128z"/>
    <path fill="#006dff" d="M29 89 66 128 64 69z"/>
    <path fill="#8e2ce6" d="M29 89 0 107 64 69z"/>
    <path fill="#29e7b7" d="M64 69 126 107 102 87z"/>
    <path fill="#4bd4ff" d="M0 107 66 128 29 89z"/>
    <path fill="#00b3ff" d="M66 128 126 107 64 69z"/>
    <path fill="#ffffff" opacity=".22" d="M64 0 51 74 29 89z"/>
    <path fill="#ffffff" opacity=".16" d="M64 0 102 87 64 69z"/>
  </g>
  <g transform="translate(264 148)" stroke-linecap="round">
    <path d="M0 10 76 0" stroke="#ff2b7a" stroke-width="7"/>
    <path d="M0 22 96 17" stroke="#ffcf00" stroke-width="6"/>
    <path d="M0 33 79 43" stroke="#19a7ff" stroke-width="6"/>
    <path d="M54 5h20M63 41h15" stroke="#35ffcb" stroke-width="3"/>
    <text x="82" y="13" fill="#ff2b7a" font-family="Arial, Helvetica, sans-serif" font-size="8" font-weight="700">101101</text>
    <text x="88" y="37" fill="#24b7ff" font-family="Arial, Helvetica, sans-serif" font-size="8" font-weight="700">010010</text>
  </g>
  <text x="256" y="314" fill="#fff" text-anchor="middle" font-family="Arial, Helvetica, sans-serif" font-size="56" font-weight="800" letter-spacing="16">PRISMA</text>
  <text x="256" y="365" fill="#fff" text-anchor="middle" font-family="Arial, Helvetica, sans-serif" font-size="20" font-weight="700" letter-spacing="9">EMBEDDED CODES</text>
</svg>
